<?xml version="1.0" encoding="UTF-8" standalone="no"?>
<svg
   width="16"
   height="16"
   fill="none"
   viewBox="0 0 16 16"
   version="1.1"
   id="svg2"
   sodipodi:docname="settings-16.svg"
   inkscape:version="1.3 (0e150ed, 2023-07-21)"
   xmlns:inkscape="http://www.inkscape.org/namespaces/inkscape"
   xmlns:sodipodi="http://sodipodi.sourceforge.net/DTD/sodipodi-0.dtd"
   xmlns="http://www.w3.org/2000/svg"
   xmlns:svg="http://www.w3.org/2000/svg">
  <defs
     id="defs2" />
  <sodipodi:namedview
     id="namedview2"
     pagecolor="#505050"
     bordercolor="#eeeeee"
     borderopacity="1"
     inkscape:showpageshadow="0"
     inkscape:pageopacity="0"
     inkscape:pagecheckerboard="0"
     inkscape:deskcolor="#505050"
     inkscape:zoom="34.875"
     inkscape:cx="8"
     inkscape:cy="7.9856631"
     inkscape:window-width="1392"
     inkscape:window-height="922"
     inkscape:window-x="0"
     inkscape:window-y="75"
     inkscape:window-maximized="0"
     inkscape:current-layer="svg2" />
  <g
     fill="currentColor"
     fill-rule="evenodd"
     clip-rule="evenodd"
     id="g2">
    <path
       d="M8 5a3 3 0 100 6 3 3 0 000-6zM6.5 8a1.5 1.5 0 113 0 1.5 1.5 0 01-3 0z"
       id="path1" />
    <path
       d="M7.5 0a1.75 1.75 0 00-1.75 1.75v.15c-.16.06-.318.125-.472.196l-.106-.106a1.75 1.75 0 00-2.475 0l-.707.707a1.75 1.75 0 000 2.475l.106.106a6.46 6.46 0 00-.196.472h-.15A1.75 1.75 0 000 7.5v1c0 .966.784 1.75 1.75 1.75h.15c.06.16.125.318.196.472l-.106.107a1.75 1.75 0 000 2.474l.707.708a1.75 1.75 0 002.475 0l.106-.107c.154.071.312.137.472.196v.15c0 .966.784 1.75 1.75 1.75h1a1.75 1.75 0 001.75-1.75v-.15c.16-.06.318-.125.472-.196l.106.107a1.75 1.75 0 002.475 0l.707-.707a1.75 1.75 0 000-2.475l-.106-.107c.071-.154.137-.311.196-.472h.15A1.75 1.75 0 0016 8.5v-1a1.75 1.75 0 00-1.75-1.75h-.15a6.455 6.455 0 00-.196-.472l.106-.106a1.75 1.75 0 000-2.475l-.707-.707a1.75 1.75 0 00-2.475 0l-.106.106a6.46 6.46 0 00-.472-.196v-.15A1.75 1.75 0 008.5 0h-1zm-.25 1.75a.25.25 0 01.25-.25h1a.25.25 0 01.25.25v.698c0 .339.227.636.555.724.42.113.817.28 1.186.492a.75.75 0 00.905-.12l.493-.494a.25.25 0 01.354 0l.707.708a.25.25 0 010 .353l-.494.494a.75.75 0 00-.12.904c.213.369.38.767.492 1.186a.75.75 0 00.724.555h.698a.25.25 0 01.25.25v1a.25.25 0 01-.25.25h-.698a.75.75 0 00-.724.555c-.113.42-.28.817-.492 1.186a.75.75 0 00.12.905l.494.493a.25.25 0 010 .354l-.707.707a.25.25 0 01-.354 0l-.494-.494a.75.75 0 00-.904-.12 4.966 4.966 0 01-1.186.492.75.75 0 00-.555.724v.698a.25.25 0 01-.25.25h-1a.25.25 0 01-.25-.25v-.698a.75.75 0 00-.555-.724 4.966 4.966 0 01-1.186-.491.75.75 0 00-.904.12l-.494.493a.25.25 0 01-.354 0l-.707-.707a.25.25 0 010-.354l.494-.493a.75.75 0 00.12-.905 4.966 4.966 0 01-.492-1.186.75.75 0 00-.724-.555H1.75a.25.25 0 01-.25-.25v-1a.25.25 0 01.25-.25h.698a.75.75 0 00.724-.555c.113-.42.28-.817.491-1.186a.75.75 0 00-.12-.904L3.05 4.11a.25.25 0 010-.353l.707-.708a.25.25 0 01.354 0l.493.494c.24.24.611.289.905.12a4.965 4.965 0 011.186-.492.75.75 0 00.555-.724V1.75z"
       id="path2" />
  </g>
</svg>
