<?xml version="1.0" encoding="UTF-8" standalone="no"?>
<svg
   width="13.381818"
   viewBox="0 0 18.399999 13.309091"
   version="1.1"
   id="svg2"
   sodipodi:docname="pipeline-category-icon.svg"
   height="13.309091"
   inkscape:version="1.3 (0e150ed, 2023-07-21)"
   xml:space="preserve"
   xmlns:inkscape="http://www.inkscape.org/namespaces/inkscape"
   xmlns:sodipodi="http://sodipodi.sourceforge.net/DTD/sodipodi-0.dtd"
   xmlns="http://www.w3.org/2000/svg"
   xmlns:svg="http://www.w3.org/2000/svg"><defs
     id="defs2" /><sodipodi:namedview
     id="namedview2"
     pagecolor="#505050"
     bordercolor="#eeeeee"
     borderopacity="1"
     inkscape:showpageshadow="0"
     inkscape:pageopacity="0"
     inkscape:pagecheckerboard="0"
     inkscape:deskcolor="#505050"
     inkscape:zoom="27.306381"
     inkscape:cx="1.8310738"
     inkscape:cy="4.4495094"
     inkscape:window-width="1920"
     inkscape:window-height="994"
     inkscape:window-x="1512"
     inkscape:window-y="0"
     inkscape:window-maximized="0"
     inkscape:current-layer="svg2" /><rect
     style="opacity:0.92;fill:#5a8f7b;fill-opacity:1;stroke:#7d6ec2;stroke-width:0"
     id="rect2"
     width="18.39731"
     height="18.30002"
     x="0.0019706851"
     y="-2.4934833" /><g
     style="fill:#ffffff"
     id="g3"
     transform="matrix(0.6627698,0,0,0.6627698,1.2658552,-1.2490516)"><path
       fill="currentColor"
       fill-rule="evenodd"
       d="M 4.75,4.5 A 2.25,2.25 0 0 0 2.5,6.75 v 1 A 2.25,2.25 0 0 0 4.75,10 h 1 A 2.25,2.25 0 0 0 7.986,8 H 9.82 c 0.967,0 1.75,0.784 1.75,1.75 v 4.5 a 3.25,3.25 0 0 0 3.25,3.25 h 1.195 a 2.25,2.25 0 0 0 2.236,2 h 1 a 2.25,2.25 0 0 0 2.25,-2.25 v -1 A 2.25,2.25 0 0 0 19.25,14 h -1 a 2.25,2.25 0 0 0 -2.236,2 h -1.195 a 1.75,1.75 0 0 1 -1.75,-1.75 V 9.75 A 3.25,3.25 0 0 0 9.82,6.5 H 7.986 A 2.25,2.25 0 0 0 5.75,4.5 Z M 4,6.75 A 0.75,0.75 0 0 1 4.75,6 h 1 A 0.75,0.75 0 0 1 6.5,6.75 v 1 A 0.75,0.75 0 0 1 5.75,8.5 h -1 A 0.75,0.75 0 0 1 4,7.75 Z m 14.25,8.75 a 0.75,0.75 0 0 0 -0.75,0.75 v 1 c 0,0.414 0.336,0.75 0.75,0.75 h 1 A 0.75,0.75 0 0 0 20,17.25 v -1 A 0.75,0.75 0 0 0 19.25,15.5 Z"
       clip-rule="evenodd"
       id="path1"
       style="fill:#ffffff" /></g></svg>
