<svg xmlns="http://www.w3.org/2000/svg" width="24" height="24" fill="none" viewBox="0 0 24 24"><path fill="currentColor" fill-rule="evenodd" d="M2 5a3 3 0 115.585 1.524l1.79 1.79.68-.68a2.75 2.75 0 013.89 0l.68.68 1.79-1.79a3 3 0 111.06 1.06l-1.79 1.791.681.68a2.75 2.75 0 010 3.89l-.68.68 1.79 1.79a3 3 0 11-1.06 1.06l-1.791-1.79-.68.681a2.75 2.75 0 01-3.89 0l-.68-.68-1.79 1.79a3 3 0 11-1.06-1.06l1.79-1.791-.681-.68a2.75 2.75 0 010-3.89l.68-.68-1.79-1.79A3 3 0 012 5zm3-1.5a1.5 1.5 0 100 3 1.5 1.5 0 000-3zm0 14a1.5 1.5 0 100 3 1.5 1.5 0 000-3zM17.5 19a1.5 1.5 0 113 0 1.5 1.5 0 01-3 0zM19 3.5a1.5 1.5 0 100 3 1.5 1.5 0 000-3zm-7.884 5.195a1.25 1.25 0 011.768 0l2.421 2.421a1.25 1.25 0 010 1.768l-2.421 2.421a1.25 1.25 0 01-1.768 0l-2.421-2.421a1.25 1.25 0 010-1.768l2.421-2.421z" clip-rule="evenodd"/></svg>