<svg width="24" height="24" viewBox="0 0 24 24" fill="none" xmlns="http://www.w3.org/2000/svg">
<g id="size=24">
<g id="Path">
<path d="M12 7C12.4143 7 12.75 7.33579 12.75 7.75V12.25C12.75 12.6642 12.4143 13 12 13C11.5858 13 11.25 12.6642 11.25 12.25V7.75C11.25 7.33579 11.5858 7 12 7Z" fill="#000001"/>
<path d="M12 15C11.4478 15 11 15.4477 11 16C11 16.5523 11.4478 17 12 17H12.01C12.5623 17 13.01 16.5523 13.01 16C13.01 15.4477 12.5623 15 12.01 15H12Z" fill="#000001"/>
<path fill-rule="evenodd" clip-rule="evenodd" d="M1.88382 10.0558L10.0555 1.88415C11.1294 0.810196 12.8707 0.810205 13.9446 1.88417L22.1161 10.0558C23.19 11.1298 23.19 12.871 22.1161 13.9449L13.9446 22.1164C12.8706 23.1903 11.1295 23.1903 10.0555 22.1164L1.88385 13.9449C0.809886 12.871 0.809874 11.1298 1.88382 10.0558ZM11.1161 2.94481L2.94448 11.1165C2.45633 11.6046 2.45633 12.3961 2.9445 12.8842L11.1162 21.0557C11.6043 21.5439 12.3958 21.5439 12.8839 21.0557L21.0554 12.8842C21.5435 12.3961 21.5436 11.6046 21.0554 11.1165L12.8839 2.94482C12.3958 2.45665 11.6043 2.45665 11.1161 2.94481Z" fill="#000001"/>
</g>
</g>
</svg>
