<svg width="24" height="24" viewBox="0 0 24 24" fill="none" xmlns="http://www.w3.org/2000/svg">
<g id="size=24">
<path id="Path" fill-rule="evenodd" clip-rule="evenodd" d="M12 1C5.92487 1 1 5.92487 1 12C1 18.0751 5.92487 23 12 23C18.0751 23 23 18.0751 23 12C23 5.92487 18.0751 1 12 1ZM11.25 7.75C11.25 7.33579 11.5858 7 12 7C12.4142 7 12.75 7.33579 12.75 7.75V12.25C12.75 12.6642 12.4142 13 12 13C11.5858 13 11.25 12.6642 11.25 12.25V7.75ZM11 16C11 15.4477 11.4477 15 12 15H12.01C12.5623 15 13.01 15.4477 13.01 16C13.01 16.5523 12.5623 17 12.01 17H12C11.4477 17 11 16.5523 11 16Z" fill="#000001"/>
</g>
</svg>
