<?xml version="1.0" encoding="UTF-8" standalone="no"?>
<!-- Created with Inkscape (http://www.inkscape.org/) -->

<svg
   width="4.000505mm"
   height="4.0710607mm"
   viewBox="0 0 4.000505 4.0710607"
   version="1.1"
   id="svg1"
   inkscape:version="1.3 (0e150ed, 2023-07-21)"
   sodipodi:docname="amphi-square-logo_nonpaths.svg"
   inkscape:export-filename="../../../../../../Desktop/amphi-square-logo.png"
   inkscape:export-xdpi="96"
   inkscape:export-ydpi="96"
   xmlns:inkscape="http://www.inkscape.org/namespaces/inkscape"
   xmlns:sodipodi="http://sodipodi.sourceforge.net/DTD/sodipodi-0.dtd"
   xmlns:xlink="http://www.w3.org/1999/xlink"
   xmlns="http://www.w3.org/2000/svg"
   xmlns:svg="http://www.w3.org/2000/svg">
  <sodipodi:namedview
     id="namedview1"
     pagecolor="#505050"
     bordercolor="#eeeeee"
     borderopacity="1"
     inkscape:showpageshadow="0"
     inkscape:pageopacity="0"
     inkscape:pagecheckerboard="0"
     inkscape:deskcolor="#505050"
     inkscape:document-units="mm"
     inkscape:zoom="11.428174"
     inkscape:cx="19.163166"
     inkscape:cy="16.231814"
     inkscape:window-width="2560"
     inkscape:window-height="1412"
     inkscape:window-x="1512"
     inkscape:window-y="149"
     inkscape:window-maximized="1"
     inkscape:current-layer="layer1" />
  <defs
     id="defs1">
    <linearGradient
       id="linearGradient14"
       inkscape:collect="always">
      <stop
         style="stop-color:#000000;stop-opacity:1;"
         offset="0"
         id="stop14" />
      <stop
         style="stop-color:#000000;stop-opacity:0;"
         offset="1"
         id="stop15" />
    </linearGradient>
    <linearGradient
       id="swatch12"
       inkscape:swatch="solid">
      <stop
         style="stop-color:#000000;stop-opacity:1;"
         offset="0"
         id="stop13" />
    </linearGradient>
    <rect
       x="123.66742"
       y="261.60416"
       width="85.379112"
       height="35.370846"
       id="rect1" />
    <linearGradient
       inkscape:collect="always"
       xlink:href="#linearGradient14"
       id="linearGradient15"
       x1="124.86797"
       y1="278.84354"
       x2="205.72131"
       y2="278.84354"
       gradientUnits="userSpaceOnUse" />
  </defs>
  <g
     inkscape:label="Layer 1"
     inkscape:groupmode="layer"
     id="layer1"
     transform="translate(-43.459922,-57.723277)">
    <path
       d="m 139.98799,286.27021 h -2.16 v -2.13333 q -2.37334,2.61333 -5.46668,2.61333 -3.09333,0 -5.30667,-2.26667 -2.18667,-2.29333 -2.18667,-5.44 0,-3.17334 2.21334,-5.41334 2.21333,-2.26667 5.38667,-2.26667 3.2,0 5.36001,2.58667 v -2.21334 h 2.16 z m -7.46668,-1.57333 q 2.21334,0 3.81334,-1.6 1.6,-1.60001 1.6,-3.97334 0,-2.40001 -1.57333,-4.00001 -1.57334,-1.62667 -3.86667,-1.62667 -2.26667,0 -3.84001,1.68001 -1.57333,1.65333 -1.57333,3.92 0,2.26667 1.6,3.94667 1.6,1.65334 3.84,1.65334 z"
       id="text1"
       style="font-size:26.6667px;font-family:'Heiti SC';-inkscape-font-specification:'Heiti SC, Normal';white-space:pre;fill:#5a8f7b"
       transform="matrix(0.20027273,0,0,0.20138729,18.938464,3.5602989)"
       aria-label="a" />
  </g>
</svg>
