<?xml version="1.0" encoding="UTF-8" standalone="no"?>
<svg
   width="16"
   height="16"
   viewBox="0 0 16 16"
   fill="none"
   version="1.1"
   id="svg1"
   sodipodi:docname="github.svg"
   inkscape:version="1.3 (0e150ed, 2023-07-21)"
   xmlns:inkscape="http://www.inkscape.org/namespaces/inkscape"
   xmlns:sodipodi="http://sodipodi.sourceforge.net/DTD/sodipodi-0.dtd"
   xmlns="http://www.w3.org/2000/svg"
   xmlns:svg="http://www.w3.org/2000/svg">
  <defs
     id="defs1" />
  <sodipodi:namedview
     id="namedview1"
     pagecolor="#505050"
     bordercolor="#eeeeee"
     borderopacity="1"
     inkscape:showpageshadow="0"
     inkscape:pageopacity="0"
     inkscape:pagecheckerboard="0"
     inkscape:deskcolor="#505050"
     inkscape:zoom="22.761807"
     inkscape:cx="9.6653136"
     inkscape:cy="3.0972937"
     inkscape:window-width="1512"
     inkscape:window-height="856"
     inkscape:window-x="0"
     inkscape:window-y="639"
     inkscape:window-maximized="1"
     inkscape:current-layer="svg1" />
  <path
     fill-rule="evenodd"
     clip-rule="evenodd"
     d="M 8.012013,0.18564182 C 3.5853759,0.18564182 0,3.7710177 0,8.1976548 0,11.74297 2.2934387,14.737462 5.4782139,15.799053 c 0.4006007,0.07011 0.550826,-0.170255 0.550826,-0.380571 0,-0.190286 -0.01001,-0.821232 -0.01001,-1.492238 C 4.0060066,14.2968 3.4852256,13.435508 3.3249854,12.984833 3.2348499,12.754488 2.8442646,12.043421 2.5037541,11.853136 2.2233337,11.702911 1.8227329,11.332355 2.4937342,11.322339 c 0.630946,-0.01001 1.0816218,0.580873 1.2318471,0.821233 0.7210812,1.211817 1.872808,0.871305 2.3334988,0.660991 0.070106,-0.520782 0.2804203,-0.871307 0.5107657,-1.071607 -1.7826729,-0.200301 -3.6454659,-0.891337 -3.6454659,-3.9559319 0,-0.8713064 0.3104655,-1.5923875 0.8212313,-2.1532284 -0.08012,-0.2003004 -0.3605405,-1.0215317 0.08012,-2.1231835 0,0 0.6710061,-0.2103153 2.2033036,0.8212314 0.640961,-0.1802704 1.3219821,-0.2704055 2.0030033,-0.2704055 0.6810215,0 1.3620422,0.090136 2.0030029,0.2704055 1.532298,-1.0415618 2.203304,-0.8212314 2.203304,-0.8212314 0.440661,1.1016518 0.160241,1.9228831 0.08012,2.1231835 0.510765,0.5608409 0.82123,1.271907 0.82123,2.1532284 0,3.0746099 -1.872808,3.7556309 -3.6554799,3.9559319 0.2904354,0.250375 0.5408109,0.731096 0.5408109,1.482223 0,1.071606 -0.01002,1.932898 -0.01002,2.203303 0,0.210316 0.150226,0.460691 0.550826,0.380571 3.164749,-1.061591 5.458188,-4.066097 5.458188,-7.6013982 6e-6,-4.4266371 -3.585369,-8.01201298 -8.012007,-8.01201298 z"
     fill="#1b1f23"
     id="path1"
     style="stroke-width:1.0015" />
</svg>
