<?xml version="1.0" encoding="UTF-8" standalone="no"?>
<svg
   viewBox="0 0 3.385 3.3870001"
   version="1.1"
   id="svg1"
   sodipodi:docname="pipeline.svg"
   xml:space="preserve"
   inkscape:version="1.3 (0e150ed, 2023-07-21)"
   width="3.385"
   height="3.3870001"
   xmlns:inkscape="http://www.inkscape.org/namespaces/inkscape"
   xmlns:sodipodi="http://sodipodi.sourceforge.net/DTD/sodipodi-0.dtd"
   xmlns="http://www.w3.org/2000/svg"
   xmlns:svg="http://www.w3.org/2000/svg"><defs
     id="defs1" /><sodipodi:namedview
     id="namedview1"
     pagecolor="#505050"
     bordercolor="#eeeeee"
     borderopacity="1"
     inkscape:showpageshadow="0"
     inkscape:pageopacity="0"
     inkscape:pagecheckerboard="0"
     inkscape:deskcolor="#505050"
     inkscape:zoom="100.34401"
     inkscape:cx="3.9663553"
     inkscape:cy="2.9548351"
     inkscape:window-width="1392"
     inkscape:window-height="922"
     inkscape:window-x="0"
     inkscape:window-y="75"
     inkscape:window-maximized="0"
     inkscape:current-layer="g3" /><g
     id="g3"
     transform="matrix(0.15016129,0,0,0.15020517,-2.9946236,-2.9614603)"><g
       class="jp-console-icon-background-color jp-icon-selectable"
       fill="#0288d1"
       id="g1"
       style="stroke:none;fill:#f67d4e;fill-opacity:1"
       transform="matrix(0.14098804,0,0,0.14120855,17.135548,16.937072)"><path
         d="M 19.947973,19.721982 H 179.795 V 179.51779 H 19.947973 Z"
         id="path1-3"
         style="stroke:none;stroke-width:0.999197;fill:#f67d4e;fill-opacity:1" /></g><g
       class="jp-console-icon-color jp-icon-selectable-inverse"
       fill="#ffffff"
       id="g2" /><path
       d="m 26.254267,38.606198 c -1.505421,0 -2.7258,-1.206751 -2.7258,-2.695359 0,-1.488609 1.220379,-2.695359 2.7258,-2.695359 1.234552,0 2.27742,0.811533 2.612724,1.924561 l 4.396475,1.16e-4 v -1.539668 l 1.5576,-4.99e-4 v -4.432695 l -1.746849,-1.728111 h -4.483552 v 1.540699 h -4.672798 v -4.620617 h 4.672798 v 1.539712 h 4.483552 l 2.525647,-2.496673 3.304135,3.267269 -2.525334,2.496181 v 4.434237 l 1.557598,4.99e-4 v 4.620619 h -4.672797 v -1.540746 l -4.396335,6.66e-4 c -0.335156,1.113262 -1.378132,1.925102 -2.612864,1.925102 z m 0,-3.850513 c -0.645182,0 -1.1682,0.517124 -1.1682,1.155154 0,0.637953 0.523018,1.155153 1.1682,1.155153 0.64518,0 1.168198,-0.5172 1.168198,-1.155153 0,-0.63803 -0.523018,-1.155154 -1.168198,-1.155154 z m 10.124398,0.38505 h -1.557599 v 1.540205 h 1.557599 z m -0.778801,-9.560248 -1.10138,1.089087 1.10138,1.089095 1.101378,-1.089095 z m -8.566798,0.318985 h -1.5576 v 1.540205 h 1.5576 z"
       id="path1"
       style="fill:#ffffff;fill-opacity:1;stroke:none;stroke-width:0.774439" /></g></svg>
