<?xml version="1.0" encoding="UTF-8" standalone="no"?>
<svg
   enable-background="new 0 0 2447.6 2452.5"
   viewBox="0 0 15.999999 16"
   version="1.1"
   id="svg4"
   sodipodi:docname="slack.svg"
   width="16"
   height="16"
   inkscape:version="1.3 (0e150ed, 2023-07-21)"
   xmlns:inkscape="http://www.inkscape.org/namespaces/inkscape"
   xmlns:sodipodi="http://sodipodi.sourceforge.net/DTD/sodipodi-0.dtd"
   xmlns="http://www.w3.org/2000/svg"
   xmlns:svg="http://www.w3.org/2000/svg">
  <defs
     id="defs4" />
  <sodipodi:namedview
     id="namedview4"
     pagecolor="#505050"
     bordercolor="#eeeeee"
     borderopacity="1"
     inkscape:showpageshadow="0"
     inkscape:pageopacity="0"
     inkscape:pagecheckerboard="0"
     inkscape:deskcolor="#505050"
     inkscape:zoom="38.974502"
     inkscape:cx="10.391409"
     inkscape:cy="12.277257"
     inkscape:window-width="1512"
     inkscape:window-height="856"
     inkscape:window-x="0"
     inkscape:window-y="639"
     inkscape:window-maximized="1"
     inkscape:current-layer="svg4" />
  <g
     clip-rule="evenodd"
     fill-rule="evenodd"
     id="g4"
     transform="matrix(0.0065171,0,0,0.0065171,-2.7150657e-4,0)">
    <path
       d="M 897.4,0 C 762.1,0.1 652.6,109.9 652.7,245.2 652.6,380.5 762.2,490.3 897.5,490.4 h 244.8 V 245.3 C 1142.4,110 1032.8,0.2 897.4,0 c 0.1,0 0.1,0 0,0 m 0,654 H 244.8 C 109.5,654.1 -0.1,763.9 0,899.2 c -0.2,135.3 109.4,245.1 244.7,245.3 h 652.7 c 135.3,-0.1 244.9,-109.9 244.8,-245.2 C 1142.3,763.9 1032.7,654.1 897.4,654 Z"
       fill="#36c5f0"
       id="path1" />
    <path
       d="M 2447.6,899.2 C 2447.7,763.9 2338.1,654.1 2202.8,654 2067.5,654.1 1957.9,763.9 1958,899.2 v 245.3 h 244.8 c 135.3,-0.1 244.9,-109.9 244.8,-245.3 z m -652.7,0 v -654 C 1795,110 1685.5,0.2 1550.2,0 1414.9,0.1 1305.3,109.9 1305.4,245.2 v 654 c -0.2,135.3 109.4,245.1 244.7,245.3 135.3,-0.1 244.9,-109.9 244.8,-245.3 z"
       fill="#2eb67d"
       id="path2" />
    <path
       d="m 1550.1,2452.5 c 135.3,-0.1 244.9,-109.9 244.8,-245.2 0.1,-135.3 -109.5,-245.1 -244.8,-245.2 h -244.8 v 245.2 c -0.1,135.2 109.5,245 244.8,245.2 z m 0,-654.1 h 652.7 c 135.3,-0.1 244.9,-109.9 244.8,-245.2 0.2,-135.3 -109.4,-245.1 -244.7,-245.3 h -652.7 c -135.3,0.1 -244.9,109.9 -244.8,245.2 -0.1,135.4 109.4,245.2 244.7,245.3 z"
       fill="#ecb22e"
       id="path3" />
    <path
       d="m 0,1553.2 c -0.1,135.3 109.5,245.1 244.8,245.2 135.3,-0.1 244.9,-109.9 244.8,-245.2 V 1308 H 244.8 C 109.5,1308.1 -0.1,1417.9 0,1553.2 Z m 652.7,0 v 654 c -0.2,135.3 109.4,245.1 244.7,245.3 135.3,-0.1 244.9,-109.9 244.8,-245.2 v -653.9 c 0.2,-135.3 -109.4,-245.1 -244.7,-245.3 -135.4,0 -244.9,109.8 -244.8,245.1 0,0 0,0.1 0,0"
       fill="#e01e5a"
       id="path4" />
  </g>
</svg>
