<svg xmlns="http://www.w3.org/2000/svg" width="24" height="24" fill="none" viewBox="0 0 24 24"><path fill="currentColor" d="M20.25 2A2.75 2.75 0 0 1 23 4.75v14.5A2.75 2.75 0 0 1 20.25 22H3.75A2.75 2.75 0 0 1 1 19.25V4.75A2.75 2.75 0 0 1 3.75 2zM3.75 3.5c-.69 0-1.25.56-1.25 1.25v9.656l6.007-4.971a.75.75 0 0 1 .374-.175.75.75 0 0 1 .468.076l5.572 2.786L18.55 9.4a.75.75 0 0 1 .9 1.2l-3.987 2.99a.75.75 0 0 1-.812.074l-5.55-2.774L2.5 16.352v2.898c0 .69.56 1.25 1.25 1.25H8v-.75a.75.75 0 0 1 1.5 0v.75h5v-.75a.75.75 0 0 1 1.5 0v.75h4.25c.69 0 1.25-.56 1.25-1.25V4.75c0-.69-.56-1.25-1.25-1.25z"/></svg>