<?xml version="1.0" encoding="UTF-8" standalone="no"?>
<svg
   width="24"
   height="24"
   viewBox="0 0 24 24"
   fill="none"
   stroke="currentColor"
   stroke-width="2"
   stroke-linecap="round"
   stroke-linejoin="round"
   class="icon icon-tabler icons-tabler-outline icon-tabler-file-type-txt"
   version="1.1"
   id="svg10"
   sodipodi:docname="file-pqt.svg"
   xml:space="preserve"
   inkscape:version="1.3 (0e150ed, 2023-07-21)"
   xmlns:inkscape="http://www.inkscape.org/namespaces/inkscape"
   xmlns:sodipodi="http://sodipodi.sourceforge.net/DTD/sodipodi-0.dtd"
   xmlns="http://www.w3.org/2000/svg"
   xmlns:svg="http://www.w3.org/2000/svg"><defs
     id="defs10" /><sodipodi:namedview
     id="namedview10"
     pagecolor="#505050"
     bordercolor="#eeeeee"
     borderopacity="1"
     inkscape:showpageshadow="0"
     inkscape:pageopacity="0"
     inkscape:pagecheckerboard="0"
     inkscape:deskcolor="#505050"
     inkscape:zoom="13.906433"
     inkscape:cx="-6.723507"
     inkscape:cy="12.94365"
     inkscape:window-width="1512"
     inkscape:window-height="851"
     inkscape:window-x="0"
     inkscape:window-y="639"
     inkscape:window-maximized="1"
     inkscape:current-layer="g2" /><g
     style="fill:none;stroke:currentColor;stroke-width:2;stroke-linecap:round;stroke-linejoin:round"
     id="g10"
     transform="translate(0,-0.05084746)" /><g
     id="g2"
     style="fill:none;stroke:currentColor;stroke-width:2;stroke-linecap:round;stroke-linejoin:round;fill-opacity:1"
     transform="translate(0,-0.05084746)"><g
       id="g1"
       style="fill:none;fill-opacity:1"><path
         stroke="none"
         d="M0 0h24v24H0z"
         fill="none"
         id="path1"
         transform="translate(0,0.05084746)"
         style="fill:none;fill-opacity:1" /><path
         d="M14 3v4a1 1 0 0 0 1 1h4"
         id="path2"
         transform="translate(0,0.05084746)"
         style="fill:none;fill-opacity:1" /><path
         d="M14 3v4a1 1 0 0 0 1 1h4"
         id="path3"
         transform="translate(0,0.05084746)"
         style="fill:none;fill-opacity:1" /><path
         d="M5 12v-7a2 2 0 0 1 2 -2h7l5 5v4"
         id="path5"
         transform="translate(0,0.05084746)"
         style="fill:none;fill-opacity:1" /><path
         stroke="none"
         d="M 0,0 H 24 V 24 H 0 Z"
         fill="none"
         id="path1-7"
         style="fill:none;fill-opacity:1" /><path
         d="m 3.825425,21.225417 v -6.349143 h 1.7169656 a 1.7169661,1.5872861 0 1 1 0,3.174572 H 3.825425"
         id="path3-3-6"
         style="fill:none;stroke:currentColor;stroke-width:1.65085;stroke-linecap:round;stroke-linejoin:round;fill-opacity:1" /><path
         stroke="none"
         d="M 0,0 H 24 V 24 H 0 Z"
         fill="none"
         id="path1-4"
         style="stroke-width:2;stroke-linecap:round;stroke-linejoin:round;fill:none;fill-opacity:1" /><g
         id="g12"
         transform="matrix(0.9891281,0,0,0.78166992,-11.790416,3.9807888)"
         style="fill:none;stroke-width:2;stroke-linecap:round;stroke-linejoin:round;fill-opacity:1"><path
           d="m 28,14 h 4"
           id="path2-91"
           style="fill:none;fill-opacity:1" /><path
           d="m 30,14 v 8"
           id="path3-7"
           style="fill:none;fill-opacity:1" /></g><path
         stroke="none"
         d="M 0,0 H 24 V 24 H 0 Z"
         fill="none"
         id="path1-5"
         style="stroke-width:2;stroke-linecap:round;stroke-linejoin:round;fill:none;fill-opacity:1" /><g
         id="g14"
         transform="matrix(0.9891281,0,0,0.78166992,-25.71363,8.6708083)"
         style="fill:none;stroke-width:2;stroke-linecap:round;stroke-linejoin:round;fill-opacity:1"><path
           d="m 38,8 a 2,2 0 0 1 2,2 v 4 a 2,2 0 1 1 -4,0 v -4 a 2,2 0 0 1 2,-2 z"
           id="path2-5"
           style="fill:none;fill-opacity:1" /><path
           d="m 39,15 1,1"
           id="path3-5"
           style="fill:none;fill-opacity:1" /></g></g></g></svg>
