<?xml version="1.0" encoding="UTF-8" standalone="no"?>
<svg
   width="24"
   height="24"
   fill="none"
   viewBox="0 0 24 24"
   version="1.1"
   id="svg2"
   sodipodi:docname="file-parquet-24.svg"
   inkscape:version="1.3 (0e150ed, 2023-07-21)"
   xmlns:inkscape="http://www.inkscape.org/namespaces/inkscape"
   xmlns:sodipodi="http://sodipodi.sourceforge.net/DTD/sodipodi-0.dtd"
   xmlns="http://www.w3.org/2000/svg"
   xmlns:svg="http://www.w3.org/2000/svg">
  <defs
     id="defs2" />
  <sodipodi:namedview
     id="namedview2"
     pagecolor="#505050"
     bordercolor="#eeeeee"
     borderopacity="1"
     inkscape:showpageshadow="0"
     inkscape:pageopacity="0"
     inkscape:pagecheckerboard="0"
     inkscape:deskcolor="#505050"
     inkscape:zoom="8.0003289"
     inkscape:cx="15.124378"
     inkscape:cy="22.936557"
     inkscape:window-width="1312"
     inkscape:window-height="670"
     inkscape:window-x="118"
     inkscape:window-y="798"
     inkscape:window-maximized="0"
     inkscape:current-layer="svg2" />
  <g
     fill="currentColor"
     id="g2">
    <path
       fill-rule="evenodd"
       d="M 5.75,1 A 2.75,2.75 0 0 0 3,3.75 v 16.5 A 2.75,2.75 0 0 0 5.75,23 h 12.5 A 2.75,2.75 0 0 0 21,20.25 V 8.664 C 21,8.2 20.816,7.755 20.487,7.427 L 14.573,1.513 A 1.75,1.75 0 0 0 13.336,1 Z M 4.5,3.75 C 4.5,3.06 5.06,2.5 5.75,2.5 H 13 V 8.25 C 13,8.664 13.336,9 13.75,9 h 5.75 v 11.25 c 0,0.69 -0.56,1.25 -1.25,1.25 H 5.75 C 5.06,21.5 4.5,20.94 4.5,20.25 Z M 18.44,7.5 14.5,3.56 V 7.5 Z"
       clip-rule="evenodd"
       id="path2" />
  </g>
  <text
     xml:space="preserve"
     style="font-size:48px;line-height:0;font-family:'Heiti SC';-inkscape-font-specification:'Heiti SC, Normal';fill:#f9f9f9;stroke:#7d6ec2;stroke-width:0"
     x="18.610168"
     y="19.525423"
     id="text2"><tspan
       sodipodi:role="line"
       id="tspan2"></tspan></text>
  <text
     xml:space="preserve"
     style="font-size:4.13333px;line-height:0;font-family:'Heiti SC';-inkscape-font-specification:'Heiti SC, Normal';fill:#51acf1;fill-opacity:1;stroke:#7d6ec2;stroke-width:0"
     x="4.8830051"
     y="19.389633"
     id="text3"
     transform="scale(0.99888384,1.0011174)"
     inkscape:transform-center-x="-0.74996916"><tspan
       sodipodi:role="line"
       id="tspan3"
       x="4.8830051"
       y="19.389633"
       style="font-style:normal;font-variant:normal;font-weight:normal;font-stretch:normal;font-size:4.13333px;font-family:Arial;-inkscape-font-specification:Arial;fill:#51acf1;fill-opacity:1;stroke-width:0">parquet</tspan></text>
</svg>
