<?xml version="1.0" encoding="UTF-8" standalone="no"?>
<svg
   width="24"
   height="24"
   viewBox="0 0 24 24"
   fill="none"
   stroke="currentColor"
   stroke-width="2"
   stroke-linecap="round"
   stroke-linejoin="round"
   class="icon icon-tabler icons-tabler-outline icon-tabler-file-type-docx"
   version="1.1"
   id="svg8"
   sodipodi:docname="file-json-24.svg"
   xml:space="preserve"
   inkscape:version="1.3 (0e150ed, 2023-07-21)"
   xmlns:inkscape="http://www.inkscape.org/namespaces/inkscape"
   xmlns:sodipodi="http://sodipodi.sourceforge.net/DTD/sodipodi-0.dtd"
   xmlns="http://www.w3.org/2000/svg"
   xmlns:svg="http://www.w3.org/2000/svg"><defs
     id="defs8" /><sodipodi:namedview
     id="namedview8"
     pagecolor="#505050"
     bordercolor="#eeeeee"
     borderopacity="1"
     inkscape:showpageshadow="0"
     inkscape:pageopacity="0"
     inkscape:pagecheckerboard="0"
     inkscape:deskcolor="#505050"
     inkscape:zoom="9.8333333"
     inkscape:cx="11.949153"
     inkscape:cy="11.949153"
     inkscape:window-width="2560"
     inkscape:window-height="1412"
     inkscape:window-x="1512"
     inkscape:window-y="149"
     inkscape:window-maximized="1"
     inkscape:current-layer="g8" /><path
     stroke="none"
     d="M0 0h24v24H0z"
     fill="none"
     id="path1" /><path
     d="M14 3v4a1 1 0 0 0 1 1h4"
     id="path2" /><path
     d="M5 12v-7a2 2 0 0 1 2 -2h7l5 5v4"
     id="path3" /><g
     style="fill:none;stroke:currentColor;stroke-width:2;stroke-linecap:round;stroke-linejoin:round"
     id="g8"
     transform="translate(-0.05084746,-0.05084746)"><path
       stroke="none"
       d="M 0,0 H 24 V 24 H 0 Z"
       fill="none"
       id="path1-2" /><path
       d="m 19.856553,21.189917 v -6.278139 l 2.833382,6.278139 v -6.278139"
       id="path2-4"
       style="stroke-width:1.72186" /><path
       d="m 15.134243,14.911778 a 1.8889235,1.5695348 0 0 1 1.888925,1.569535 v 3.13907 a 1.888924,1.5695353 0 1 1 -3.777848,0 v -3.13907 a 1.8889235,1.5695348 0 0 1 1.888923,-1.569535 z"
       id="path3-8"
       style="stroke-width:1.72186" /><path
       d="m 1.9117778,14.911778 h 2.8333854 v 5.10099 a 1.416693,1.1771514 0 0 1 -2.8333854,0 v -0.392385"
       id="path4-3"
       style="stroke-width:1.72186" /><path
       d="m 7.5785486,20.405151 a 0.94446178,0.7847675 0 0 0 0.9444615,0.784766 h 0.944462 A 0.94446178,0.7847675 0 0 0 10.411934,20.405151 V 18.835614 A 0.94446178,0.7847675 0 0 0 9.4674721,18.050847 H 8.5230101 A 0.94446178,0.7847675 0 0 1 7.5785486,17.266079 v -1.569534 a 0.94446178,0.7847675 0 0 1 0.9444615,-0.784767 h 0.944462 a 0.94446178,0.7847675 0 0 1 0.9444619,0.784767"
       id="path5-9"
       style="stroke-width:1.72186" /></g></svg>
