<?xml version="1.0" encoding="UTF-8" standalone="no"?>
<svg
   width="24"
   height="24"
   fill="none"
   viewBox="0 0 24 24"
   version="1.1"
   id="svg2"
   sodipodi:docname="file-pdf-24.svg"
   inkscape:version="1.3 (0e150ed, 2023-07-21)"
   xmlns:inkscape="http://www.inkscape.org/namespaces/inkscape"
   xmlns:sodipodi="http://sodipodi.sourceforge.net/DTD/sodipodi-0.dtd"
   xmlns="http://www.w3.org/2000/svg"
   xmlns:svg="http://www.w3.org/2000/svg">
  <defs
     id="defs2" />
  <sodipodi:namedview
     id="namedview2"
     pagecolor="#505050"
     bordercolor="#eeeeee"
     borderopacity="1"
     inkscape:showpageshadow="0"
     inkscape:pageopacity="0"
     inkscape:pagecheckerboard="0"
     inkscape:deskcolor="#505050"
     inkscape:zoom="8.0003289"
     inkscape:cx="15.124378"
     inkscape:cy="22.87406"
     inkscape:window-width="1512"
     inkscape:window-height="853"
     inkscape:window-x="0"
     inkscape:window-y="639"
     inkscape:window-maximized="1"
     inkscape:current-layer="svg2" />
  <g
     fill="currentColor"
     id="g2">
    <path
       fill-rule="evenodd"
       d="M5.75 1A2.75 2.75 0 003 3.75v16.5A2.75 2.75 0 005.75 23h12.5A2.75 2.75 0 0021 20.25V8.664c0-.464-.184-.909-.513-1.237l-5.914-5.914A1.75 1.75 0 0013.336 1H5.75zM4.5 3.75c0-.69.56-1.25 1.25-1.25H13v5.75c0 .414.336.75.75.75h5.75v11.25c0 .69-.56 1.25-1.25 1.25H5.75c-.69 0-1.25-.56-1.25-1.25V3.75zM18.44 7.5L14.5 3.56V7.5h3.94z"
       clip-rule="evenodd"
       id="path2" />
  </g>
  <text
     xml:space="preserve"
     style="font-size:48px;line-height:0;font-family:'Heiti SC';-inkscape-font-specification:'Heiti SC, Normal';fill:#f9f9f9;stroke:#7d6ec2;stroke-width:0"
     x="18.610168"
     y="19.525423"
     id="text2"><tspan
       sodipodi:role="line"
       id="tspan2" /></text>
  <text
     xml:space="preserve"
     style="font-size:6.04823px;line-height:0;font-family:'Heiti SC';-inkscape-font-specification:'Heiti SC, Normal';fill:#d40000;stroke:#7d6ec2;stroke-width:0"
     x="5.7093801"
     y="19.640993"
     id="text3"
     transform="scale(1.0124776,0.98767617)"><tspan
       sodipodi:role="line"
       id="tspan3"
       x="5.7093801"
       y="19.640993"
       style="font-style:normal;font-variant:normal;font-weight:normal;font-stretch:normal;font-family:Arial;-inkscape-font-specification:Arial;fill:#d40000;stroke-width:0">PDF</tspan></text>
</svg>
