<svg xmlns="http://www.w3.org/2000/svg" viewBox="0 0 64 64" id="iceberg"><polygon fill="#c1cfe8" points="8 29 13 24 14 14 24 11 24 14 28 5 32 2 34 10 38 10 42 15 49 19 53 26 52 29 8 29"></polygon><rect width="2" height="9" x="23" y="14" fill="#a5badb"></rect><polyline fill="#a5badb" points="46 29 43 23 42 15 38 10 34 10 38 29"></polyline><polyline fill="#43b6e5" points="8 33 7 41 13 48 14 45 16 53 20 56 22 54 27 60 31 62 39 58 42 51 48 48 49 40 52 39 53 33"></polyline><polygon fill="#66c3e9" points="17 48 18 45 20 53 21.714 54.286 22 54 27 60 31 62 39 58 42 51 48 48 49 40 52 39 53 33 12 33 11 41 17 48"></polygon><polyline fill="#d7e0ef" points="43 23 42 15 49 19 47 24 43 23"></polyline><rect width="62" height="4" x="1" y="29" fill="#8adef9"></rect><path fill="#a5e9f9" d="M5,31H63V29H3A2,2,0,0,0,5,31Z"></path><polygon fill="#3693cf" points="16.961 38.274 15.038 37.726 13.038 44.726 14 45 14.961 45.274 16.961 38.274"></polygon><path fill="#3693cf" d="M31.832,47.445,30,44.7V41.48l4.624-3.7-1.249-1.562-5,4A1,1,0,0,0,28,41v4a1,1,0,0,0,.168.555L30,48.3V61.5l1,.5,1-.5V48A1.006,1.006,0,0,0,31.832,47.445Z"></path><polygon fill="#3693cf" points="42.003 37.923 41.003 50.923 42 51 43.043 50.478 43.997 38.077 42.003 37.923"></polygon><rect width="544" height="256" x="-96" y="-192" fill="none"></rect></svg>