<?xml version="1.0"?>
<svg width="64" height="64" xmlns="http://www.w3.org/2000/svg" xmlns:svg="http://www.w3.org/2000/svg" xmlns:xlink="http://www.w3.org/1999/xlink">
 <defs>
  <path d="m32.16,21.26l0.93,0l-0.22,-1.4l-0.71,1.4zm1.08,0.91l-1.55,0l-0.49,0.96l-1.1,0l2.42,-4.53l1.06,0l0.82,4.53l-1.01,0l-0.15,-0.97" id="A"/>
 </defs>
 <g class="layer">
  <title>Layer 1</title>
  <g fill-rule="evenodd" id="svg_1">
   <path d="m57.62,33.16l-0.11,-0.26l-2.35,-4.94a0.27,0.3 0 0 1 0.04,-0.41l3.7,-4.84a0.4,0.45 0 0 0 0.11,-0.22l-1.08,0.32l-4.48,1.34c-0.14,0.04 -0.2,-0.01 -0.27,-0.13l-2.56,-4.74a0.57,0.65 0 0 0 -0.18,-0.23l-0.21,1.26l-0.72,4.46l-0.07,0.48c-0.01,0.15 -0.08,0.22 -0.21,0.26l-5.28,1.86c-0.07,0.03 -0.15,0.07 -0.23,0.14l4.34,1.93l-0.13,0.11l-2.71,1.95c-0.11,0.08 -0.19,0.09 -0.32,0.03l-3.23,-1.6c-0.49,-0.25 -0.92,-0.55 -1.26,-1.02c-0.77,-1.06 -0.61,-2.24 0.4,-2.95a4.82,5.38 0 0 1 1.09,-0.54l5.19,-1.85c0.14,-0.04 0.21,-0.12 0.24,-0.3l0.72,-4.46c0.13,-0.78 0.2,-1.6 0.55,-2.34c0.14,-0.28 0.3,-0.54 0.49,-0.78c0.69,-0.85 1.65,-0.88 2.38,-0.08c0.24,0.28 0.45,0.59 0.63,0.92l2.38,4.39a0.25,0.28 0 0 0 0.35,0.15l5.8,-1.71c0.39,-0.12 0.79,-0.16 1.22,-0.08c0.89,0.18 1.28,0.94 0.98,1.9c-0.14,0.44 -0.37,0.81 -0.64,1.15l-4.03,5.31c-0.12,0.14 -0.12,0.26 -0.03,0.41l2.4,5.09c0.19,0.41 0.34,0.84 0.34,1.29c0.01,1.07 -0.69,1.93 -1.64,2.08c-0.53,0.08 -1.02,-0.04 -1.51,-0.22l-3.64,-1.23a0.2,0.23 0 0 1 -0.17,-0.23l-0.43,-2.85c0,-0.03 0.01,-0.05 0.01,-0.12l4.18,1.28" fill="#e25a1c" id="svg_2"/>
   <g fill="#3c3a3e" id="svg_3">
    <path d="m55.24,47.02l-3.29,0a0.32,0.36 0 0 1 -0.31,-0.18l-4.05,-6.83l-0.82,7.01l-2.85,0l0.11,-0.91l1.65,-13.93a0.26,0.29 0 0 1 0.11,-0.18l2.97,-2.12c0.01,-0.01 0.03,-0.01 0.08,-0.02l-0.89,7.57l0.03,0.03l4.67,-5.79l0.46,2.95c0.02,0.14 -0.01,0.24 -0.11,0.34l-3,3.51l-0.14,0.15l0.1,0.16l5.17,8.07c0.03,0.04 0.08,0.08 0.12,0.12l0,0.04m-33.9,-7.01c-0.04,-0.26 -0.07,-0.62 -0.17,-0.95c-0.49,-1.64 -2,-2.55 -3.56,-2.13c-1.72,0.44 -2.95,1.95 -3.13,3.92c-0.13,1.45 0.57,2.84 1.87,3.35c1.05,0.42 2.06,0.26 3,-0.38c1.25,-0.84 1.92,-2.06 2.01,-3.81l-0.01,0l-0.01,0zm-7.56,6.12l-0.24,2.03l-0.31,2.67c-0.01,0.1 -0.04,0.15 -0.14,0.15l-2.37,0c-0.01,0 -0.03,-0.01 -0.07,-0.02l0.14,-1.26l0.53,-4.42l0.62,-5.06c0.45,-2.95 2.72,-5.51 5.36,-6.15c1.53,-0.37 3,-0.21 4.34,0.76c1.33,0.96 2.1,2.36 2.27,4.09c0.24,2.48 -0.57,4.53 -2.16,6.24c-1.04,1.12 -2.28,1.83 -3.71,2.07c-1.48,0.25 -2.85,-0.03 -4.1,-1c-0.05,-0.03 -0.11,-0.07 -0.17,-0.12" id="svg_4"/>
    <path d="m12.51,32.06l-2.59,2.13l-0.41,-0.71c-0.36,-0.57 -0.82,-1.01 -1.49,-1.07a1.68,1.87 0 0 0 -1.41,0.63c-0.34,0.41 -0.38,1 -0.07,1.45c0.35,0.51 0.74,1 1.12,1.47l1.95,2.32c0.58,0.71 1.05,1.51 1.19,2.48c0.17,1.15 -0.03,2.26 -0.53,3.28c-0.92,1.89 -2.35,2.99 -4.23,3.32c-0.83,0.14 -1.68,0.12 -2.48,-0.14c-1.08,-0.36 -1.84,-1.15 -2.32,-2.27c-0.17,-0.39 -0.3,-0.81 -0.45,-1.23l2.8,-1.68l0.08,0.23c0.16,0.36 0.29,0.73 0.5,1.07c0.58,0.97 1.53,1.26 2.49,0.78a2.73,3.05 0 0 0 0.69,-0.49c0.61,-0.61 0.73,-1.46 0.29,-2.23c-0.27,-0.44 -0.59,-0.84 -0.92,-1.23l-2.31,-2.83c-0.52,-0.66 -0.86,-1.45 -0.98,-2.32c-0.12,-0.97 0.06,-1.89 0.51,-2.71c1.12,-2.02 2.76,-3.09 4.92,-3c1.24,0.04 2.22,0.7 2.98,1.76l0.67,0.98m20.91,10.93l-0.42,3.55c-0.01,0.05 -0.05,0.13 -0.1,0.15c-2.13,1.1 -4.93,0.95 -6.69,-1.26c-0.94,-1.19 -1.34,-2.6 -1.28,-4.18c0.13,-3.63 2.84,-6.81 6.07,-7.26c1.89,-0.26 3.55,0.3 4.83,1.95c0.88,1.12 1.28,2.44 1.22,3.92c-0.03,0.97 -0.17,1.94 -0.29,2.91l-0.49,4.09c-0.01,0.04 -0.01,0.09 -0.03,0.15l-2.55,0l0.11,-0.92l0.56,-4.73c0.11,-0.98 0.03,-1.97 -0.36,-2.87c-0.42,-0.97 -1.15,-1.48 -2.1,-1.59c-1.95,-0.24 -3.84,1.28 -4.25,3.44c-0.27,1.43 0.15,2.79 1.17,3.55c0.99,0.73 2.06,0.73 3.13,0.26c0.56,-0.25 1.02,-0.63 1.47,-1.14m10.74,-8.72l-0.34,2.94c-0.54,0 -1.07,0 -1.6,0.01c-0.43,0 -0.81,0.3 -0.95,0.76c-0.05,0.16 -0.07,0.36 -0.1,0.54l-0.79,6.78l-0.2,1.72l-2.65,0l0.15,-1.27l0.53,-4.4l0.45,-3.81c0.24,-1.7 1.74,-3.2 3.29,-3.28l2.22,-0.01" id="svg_5"/>
   </g>
  </g>
  <g fill="#3c3a3e" id="svg_6" transform="matrix(1 0 0 1 0 0)">
   <use id="svg_7" transform="matrix(0.683579 0 0 0.805334 5.87324 5.40943)" x="-19.79" xlink:href="#A" y="5.75"/>
   <path d="m18.86,25.76l-0.38,0l-0.12,0.84l0.38,0c0.23,0 0.41,-0.18 0.41,-0.51c0,-0.22 -0.12,-0.33 -0.28,-0.33l-0.01,0zm-0.92,-0.72l0.99,0c0.52,0 0.89,0.36 0.89,0.99c0,0.79 -0.47,1.32 -1.15,1.32l-0.42,0l-0.21,1.33l-0.64,0l0.55,-3.64" id="svg_8"/>
   <use id="svg_9" transform="matrix(0.683579 0 0 0.805334 5.87324 5.40943)" x="-8.55" xlink:href="#A" y="5.75"/>
   <path d="m26.94,28.54a1.7,2 0 0 1 -0.7,0.19c-0.82,0 -1.33,-0.72 -1.33,-1.63c0,-1.15 0.82,-2.13 1.81,-2.13c0.25,0 0.47,0.06 0.65,0.19l-0.09,0.87c-0.14,-0.18 -0.36,-0.3 -0.63,-0.3c-0.56,0 -1.07,0.6 -1.07,1.29c0,0.53 0.29,0.94 0.73,0.94a1.16,1.36 0 0 0 0.71,-0.29l-0.08,0.86m3.94,-1.33l-1.35,0l-0.22,1.47l-0.64,0l0.55,-3.64l0.64,0l-0.22,1.45l1.35,0l0.22,-1.45l0.65,0l-0.55,3.64l-0.65,0l0.22,-1.47m2.37,1.47l0.54,-3.64l1.71,0l-0.11,0.72l-1.06,0l-0.11,0.71l0.98,0l-0.11,0.73l-0.99,0l-0.11,0.73l1.07,0l-0.11,0.73l-1.71,0" id="svg_10"/>
  </g>
 </g>
</svg>