<?xml version="1.0"?>
<svg width="250" height="400" xmlns="http://www.w3.org/2000/svg" xmlns:svg="http://www.w3.org/2000/svg" enable-background="new 0 0 939 647.3" version="1.0" xml:space="preserve">
 <style type="text/css">.st0{fill:#CECCCC;}
	.st1{fill:#FFFFFF;}
	.st2{fill:#C3388D;}
	.st3{fill:#F9D9D2;}
	.st4{fill:#101210;}
	.st5{fill:#E5E5E4;}
	.st6{opacity:0.2;fill:#8BCCCF;enable-background:new    ;}
	.st7{fill:#525252;}
	.st8{fill:#010101;}</style>
 <g class="layer">
  <title>Layer 1</title>
  <g id="Layer_2">
   <g id="Layer_3">
    <path class="st0" d="m220.3,195.6c0.2,-9 -6.9,-16.5 -15.9,-16.7c-9,-0.2 -16.5,6.9 -16.7,15.9c0,0.3 0,0.5 0,0.8c0.2,6.3 4.3,11.9 10.4,13.9l0,24.8c-7.1,-18.2 -20.4,-33.3 -37.5,-42.7c2.5,-5.4 5,-10.1 7.5,-14.4c9.3,-13.8 19.6,-27 30.8,-39.3c6.1,-7.3 12,-14.1 16.7,-20.1c13.3,-16.6 27.8,-41.2 25.1,-55.7c-0.7,-4.1 -3.2,-7.7 -6.8,-9.8c-18.4,-10.9 -43.5,24.4 -68.1,58.5c-16.3,22.5 -24.7,54.3 -28.6,72.2c-7.6,-1.7 -15.3,-2.5 -23,-2.5c-11.2,0 -22.4,1.8 -33,5.4c-0.7,-19.9 -0.1,-39.9 1.8,-59.8c5.4,-51.7 3,-82 -7,-92.3c-2.6,-3.2 -6.5,-4.9 -10.7,-4.8c-29.7,1.5 -26.3,90.1 -25.8,100.2c1.2,24.2 10.9,53.7 16.7,70c-13.7,10.8 -23.7,25.7 -28.5,42.4l-2.1,0c-9.3,-0.4 -17.2,6.7 -17.6,16c0,0.1 0,0.1 0,0.2l0,28.1c0.4,9.3 8.2,16.6 17.6,16.3l3.7,0c4.1,9.6 10.2,18.1 17.9,25.1l-5.4,4.8c-2.6,2.3 -3,6.2 -0.7,8.9c16.3,19.8 43,31.2 72.9,31.2s56.7,-11.3 72.9,-31.2c2.2,-2.7 1.9,-6.6 -0.7,-8.9l-5.4,-4.8c7.7,-7.1 13.8,-15.9 17.9,-25.5l4.1,0c9.3,0.4 17.2,-6.8 17.7,-16.2l0,-28c-0.2,-6.5 -4.3,-12.3 -10.4,-14.5l0,-33.6c5.9,-1.9 10.1,-7.5 10.2,-13.9z" id="svg_1"/>
    <path class="st1" d="m87.4,331.8c5,-3.3 -8.2,-2.1 -9.2,-4.3c-5.2,-0.5 -10.4,-1.4 -15.5,-2.8c-9.2,-2.4 -31.4,-17.3 -33.8,-31.6s0,-41.4 10,-57.7c6.3,-9.9 14.3,-18.6 23.8,-25.5c0,0 -19.4,-46.1 -21,-80.9s1.1,-96.8 23.8,-97.9s19.4,56.9 15.5,94.7c-2.3,25.1 -2.7,50.3 -1.1,75.4c9.7,-3.1 19.7,-4.8 29.9,-5c8.9,-0.2 17.9,0.6 26.6,2.5c0,0 7.2,-53.5 31,-86.9c23.8,-33.5 48.9,-67.6 65.2,-57.9c16.3,9.7 -4.5,44.4 -18.9,62.5c-14.4,18.1 -39.3,45.3 -47.6,59.8c-5.4,9.7 -10.3,19.6 -14.4,29.9c14.8,7.6 26.9,19.6 34.7,34.3c11.7,23.4 12.6,52.2 6.3,64.4c-6.4,11.4 -17.6,19.4 -30.5,21.7c-7.2,0.3 -37.6,7.9 -37.6,7.9l-37.2,-2.6z" id="svg_2"/>
    <path class="st2" d="m140.6,199.1c0,0 18.1,-47.3 34.4,-73.9s38,-46.7 44.9,-42.6s-14,28.9 -32.2,53.3c-14.9,21.5 -28.3,44 -40.4,67.2l-6.7,-4z" id="svg_3"/>
    <path class="st2" d="m67.8,207.2l5.4,-4c0,0 -0.8,-47.3 0,-76.1s2.2,-64.6 -7.4,-64.3s-16.3,28.1 -12.6,67.2c2.7,26.2 7.6,52 14.6,77.2z" id="svg_4"/>
    <ellipse class="st3" cx="268.31" cy="320.05" id="svg_5" rx="10.5" ry="10.5" transform="matrix(0.0333297 -0.9994 0.9994 0.0333297 -277.295 555.578)"/>
    <circle class="st3" cx="176.1" cy="298.1" id="svg_6" r="10.5"/>
    <path class="st4" d="m131.3,297.2c-0.5,-0.3 -1.1,-0.1 -1.3,0.3l0,0c0,0 -3.1,5.4 -7.7,5.8c-3.1,-0.1 -6.1,-1.5 -8.2,-3.8l0,-8c2.9,-1.6 7.7,-6.5 7.7,-8.2c-0.9,-3.7 -4.3,-6.2 -8.1,-5.9c-5.4,0 -9.2,3.5 -9.2,6.5s6,6.7 7.7,7.8l0,7.9c-1.7,2.2 -4.3,3.6 -7.1,3.7c-4.3,0 -7.6,-5.9 -7.6,-5.9c-0.3,-0.5 -0.9,-0.7 -1.3,-0.4c0,0 0,0 0,0c-0.5,0.3 -0.7,0.9 -0.4,1.4c0,0 3.9,7 9.4,7c3.2,-0.1 6.1,-1.6 8.2,-4c2.2,2.4 5.3,3.8 8.6,4l0.7,0c4,-0.8 7.4,-3.3 9.3,-6.9c0,-0.4 -0.2,-1 -0.7,-1.3l0,0z" id="svg_7"/>
    <path class="st5" d="m62.6,210c0,0 -15,-38 -17.9,-57.9s-5.4,-53.1 -1.6,-75.2c1.6,-10.2 3.9,-20.3 6.6,-30.2c0,0 -7,51.5 -4.4,74.1c2.6,22.6 17.3,89.2 17.3,89.2z" id="svg_8"/>
    <path class="st5" d="m136.4,198.6c0,0 10.9,-57.5 26.7,-80.1s35.4,-50 45.4,-56.9l9.9,-7c0,0 -39.9,41.8 -55.3,76.1s-26.7,67.9 -26.7,67.9z" id="svg_9"/>
    <path class="st4" d="m73.2,263.8c-4.6,0 -8.3,3.6 -8.3,8.2c0,4.6 3.6,8.3 8.2,8.3c4.6,0 8.3,-3.6 8.3,-8.2c0,0 0,0 0,0l0,-0.1c0,-4.4 -3.7,-8.1 -8.2,-8.2zm2.3,7.7c-1.2,0 -2.2,-1 -2.2,-2.2s1,-2.2 2.2,-2.2s2.2,1 2.2,2.2c0,1.2 -1,2.2 -2.2,2.2c0,0 0,0 0,0l0,0z" id="svg_10"/>
    <path class="st4" d="m154.2,263.8c-4.6,0 -8.3,3.7 -8.3,8.3c0,4.6 3.7,8.3 8.3,8.3s8.3,-3.7 8.3,-8.3c0,0 0,0 0,0c0,-4.6 -3.7,-8.3 -8.3,-8.3c0,0 0,0 0,0zm2.4,7.7c-1.1,-0.1 -2,-1.1 -1.8,-2.3s1.1,-2 2.3,-1.8c1,0.1 1.8,0.9 1.8,1.9c-0.1,1.2 -1.1,2.2 -2.3,2.2l0,0z" id="svg_11"/>
    <ellipse class="st6" cx="115.2" cy="275.2" id="svg_12" rx="76.6" ry="55.2"/>
    <path class="st1" d="m207.9,244.5l0,-36.2c5.9,-1.3 10.2,-6.4 10.4,-12.4c-0.8,-7.9 -7.9,-13.6 -15.8,-12.8c-6.7,0.7 -12.1,6 -12.8,12.8c0.3,6 4.5,11.1 10.4,12.4l0,35.4l-1,0c-10.9,-37.7 -43,-61.1 -84.9,-61.1s-74.2,23.1 -84.9,61.1l-3.6,0c-8.2,-0.4 -15.1,5.8 -15.6,14l0,28.1c0.5,8.2 7.5,14.4 15.6,14l5,0c4.2,10.7 10.9,20.1 19.5,27.6l-7.1,6.3c-1.8,1.5 -2,4.2 -0.5,6l0,0c15.9,19.3 41.9,30.5 71.3,30.5s55.5,-10.9 71.3,-30.4c1.5,-1.8 1.3,-4.5 -0.5,-6l0,0l-7.1,-6.3c8.6,-7.5 15.3,-17 19.6,-27.6l5.4,0c8.2,0.4 15.1,-5.8 15.6,-14l0,-28.2c-0.1,-6.3 -4.3,-11.6 -10.3,-13.2zm-93.7,-22c38.8,0 70.3,25.5 70.3,56.9c0,34 -35.4,48.9 -70.3,48.9s-70.3,-15.2 -70.3,-48.9c0,-31.4 31.5,-56.9 70.3,-56.9z" id="svg_13"/>
    <path class="st7" d="m210.5,276.3l-10.4,0l0,-5.1c0,-6.9 -0.7,-13.8 -2.1,-20.6l4.4,0c4,-0.3 7.5,2.8 7.8,6.8c0,0.1 0,0.2 0,0.2l0.3,18.7z" id="svg_14"/>
    <path class="st7" d="m202.7,292.7l-5.4,0c1,-3.8 1.8,-7.7 2.3,-11.7l10.9,0l0,4.7c-0.2,4 -3.5,7.1 -7.5,7l-0.3,0z" id="svg_15"/>
    <path class="st7" d="m114.2,363c-26.1,0 -49.2,-9.4 -63.8,-26l7.3,-6.5c16.7,11.1 36.4,16.8 56.5,16.3c20.1,0.5 39.8,-5.2 56.5,-16.3l7.3,6.5c-14.6,16.6 -37.8,26 -63.8,26z" id="svg_16"/>
    <path class="st7" d="m25.7,250.6l4.7,0c-1.4,6.8 -2.1,13.7 -2.1,20.6c-0.1,1.7 -0.1,3.4 0,5.1l-10.2,0l0,-18.8c0,-3.8 3,-7 6.8,-7.1c0.3,0.2 0.5,0.2 0.8,0.2z" id="svg_17"/>
    <path class="st8" d="m114.2,217.8c-8.8,0 -17.6,1.3 -26.1,3.8l0,-28.4c8.5,-2.4 17.3,-3.6 26.1,-3.5c8.8,-0.1 17.5,1.1 26,3.5l0,28.5c-8.4,-2.5 -17.2,-3.9 -26,-3.9z" id="svg_18"/>
    <path class="st7" d="m83,194.9l0,28.6c-26.1,9.6 -44.3,31.2 -44.3,55.9c0,32.1 30.5,53.8 75.5,53.8s75.5,-21.7 75.5,-53.8c0,-24.8 -18.3,-46.3 -44.3,-55.9l0,-28.6c30.5,10.9 49.5,39.1 49.5,76.5c0,42.2 -32.3,70.6 -80.7,70.6s-80.7,-28.3 -80.7,-70.6c0,-37.4 19,-65.5 49.5,-76.5z" id="svg_19"/>
    <path class="st7" d="m17.8,281.1l10.9,0c0.5,3.9 1.3,7.8 2.3,11.7l-5.4,0c-4,0.3 -7.5,-2.8 -7.8,-6.8c0,0 0,0 0,0c0,-0.1 0,-0.1 0,-0.2l0,-4.7z" id="svg_20"/>
    <ellipse class="st7" cx="204" cy="195.6" id="svg_21" rx="6.5" ry="5.9"/>
   </g>
  </g>
 </g>
</svg>