<?xml version="1.0" encoding="UTF-8" standalone="no"?>
<svg
   width="16"
   height="16"
   viewBox="0 0 16 16"
   fill="none"
   version="1.1"
   id="svg9"
   sodipodi:docname="dagster.svg"
   inkscape:version="1.3 (0e150ed, 2023-07-21)"
   xmlns:inkscape="http://www.inkscape.org/namespaces/inkscape"
   xmlns:sodipodi="http://sodipodi.sourceforge.net/DTD/sodipodi-0.dtd"
   xmlns="http://www.w3.org/2000/svg"
   xmlns:svg="http://www.w3.org/2000/svg">
  <defs
     id="defs9">
    <filter
       style="color-interpolation-filters:sRGB"
       inkscape:label="Fade to Black or White"
       id="filter307"
       x="0"
       y="0"
       width="1"
       height="1">
      <feColorMatrix
         values="1 0 0 0 0 0 1 0 0 0 0 0 1 0 0 0 0 0 1 0"
         id="feColorMatrix307" />
    </filter>
    <filter
       style="color-interpolation-filters:sRGB"
       inkscape:label="Fade to Black or White"
       id="filter308"
       x="0"
       y="0"
       width="1"
       height="1">
      <feColorMatrix
         values="1 0 0 0 0 0 1 0 0 0 0 0 1 0 0 0 0 0 1 0"
         id="feColorMatrix308" />
    </filter>
    <filter
       style="color-interpolation-filters:sRGB"
       inkscape:label="Fade to Black or White"
       id="filter309"
       x="0"
       y="0"
       width="1"
       height="1">
      <feColorMatrix
         values="1 0 0 0 0 0 1 0 0 0 0 0 1 0 0 0 0 0 1 0"
         id="feColorMatrix309" />
    </filter>
    <filter
       style="color-interpolation-filters:sRGB"
       inkscape:label="Fade to Black or White"
       id="filter310"
       x="0"
       y="0"
       width="1"
       height="1">
      <feColorMatrix
         values="1 0 0 0 0 0 1 0 0 0 0 0 1 0 0 0 0 0 1 0"
         id="feColorMatrix310" />
    </filter>
    <filter
       style="color-interpolation-filters:sRGB"
       inkscape:label="Fade to Black or White"
       id="filter311"
       x="0"
       y="0"
       width="1"
       height="1">
      <feColorMatrix
         values="1 0 0 0 0 0 1 0 0 0 0 0 1 0 0 0 0 0 1 0"
         id="feColorMatrix311" />
    </filter>
    <filter
       style="color-interpolation-filters:sRGB"
       inkscape:label="Fade to Black or White"
       id="filter312"
       x="0"
       y="0"
       width="1"
       height="1">
      <feColorMatrix
         values="1 0 0 0 0 0 1 0 0 0 0 0 1 0 0 0 0 0 1 0"
         id="feColorMatrix312" />
    </filter>
    <filter
       style="color-interpolation-filters:sRGB"
       inkscape:label="Fade to Black or White"
       id="filter313"
       x="0"
       y="0"
       width="1"
       height="1">
      <feColorMatrix
         values="1 0 0 0 0 0 1 0 0 0 0 0 1 0 0 0 0 0 1 0"
         id="feColorMatrix313" />
    </filter>
    <filter
       style="color-interpolation-filters:sRGB"
       inkscape:label="Fade to Black or White"
       id="filter314"
       x="0"
       y="0"
       width="1"
       height="1">
      <feColorMatrix
         values="1 0 0 0 0 0 1 0 0 0 0 0 1 0 0 0 0 0 1 0"
         id="feColorMatrix314" />
    </filter>
    <filter
       style="color-interpolation-filters:sRGB"
       inkscape:label="Fade to Black or White"
       id="filter315"
       x="0"
       y="0"
       width="1"
       height="1">
      <feColorMatrix
         values="1 0 0 0 0 0 1 0 0 0 0 0 1 0 0 0 0 0 1 0"
         id="feColorMatrix315" />
    </filter>
  </defs>
  <sodipodi:namedview
     id="namedview9"
     pagecolor="#505050"
     bordercolor="#eeeeee"
     borderopacity="1"
     inkscape:showpageshadow="0"
     inkscape:pageopacity="0"
     inkscape:pagecheckerboard="0"
     inkscape:deskcolor="#505050"
     inkscape:zoom="12.451758"
     inkscape:cx="16.262764"
     inkscape:cy="23.570969"
     inkscape:window-width="1512"
     inkscape:window-height="922"
     inkscape:window-x="0"
     inkscape:window-y="639"
     inkscape:window-maximized="1"
     inkscape:current-layer="svg9" />
  <path
     d="m 116.556,335.815 c 0.006,1.956 0.414,3.889 1.201,5.679 0.786,1.791 1.932,3.4 3.368,4.727 1.435,1.327 3.129,2.344 4.975,2.987 1.846,0.643 3.805,0.899 5.754,0.751 74.087,-5.304 144.059,-57.735 166.398,-139.627 1.174,-4.71 4.708,-7.072 9.417,-7.072 2.413,0.097 4.691,1.142 6.34,2.908 1.649,1.765 2.536,4.11 2.468,6.526 0,18.259 -23.471,65.98 -57.035,93.674 -1.711,1.439 -3.075,3.246 -3.99,5.286 -0.916,2.04 -1.36,4.26 -1.298,6.495 0.034,1.818 0.426,3.611 1.154,5.276 0.728,1.666 1.778,3.171 3.089,4.43 1.311,1.259 2.857,2.246 4.551,2.906 1.693,0.66 3.5,0.978 5.316,0.938 2.941,0 7.649,-1.768 13.531,-7.072 C 305.266,303.412 350,243.909 350,178.508 350,82.624 275.872,0 172.418,0 80.106,0 0.138,75.414 0.138,162.611 c 0,57.734 45.866,101.326 106.422,101.326 46.459,0 89.385,-32.984 101.148,-78.357 1.173,-4.71 4.694,-7.072 9.402,-7.072 2.415,0.098 4.694,1.142 6.345,2.907 1.651,1.766 2.541,4.11 2.478,6.527 0,20.622 -38.811,92.542 -117.606,92.542 -18.818,0 -42.331,-5.304 -58.803,-14.738 -2.205,-1.069 -4.607,-1.671 -7.055,-1.768 -1.875,-0.072 -3.744,0.245 -5.49,0.931 -1.747,0.685 -3.332,1.725 -4.658,3.053 -1.325,1.329 -2.361,2.917 -3.043,4.665 -0.682,1.749 -0.995,3.62 -0.919,5.495 0.076,2.402 0.764,4.745 1.998,6.807 1.235,2.062 2.975,3.774 5.057,4.975 21.759,12.43 47.633,18.853 74.087,18.853 65.858,0 125.834,-44.779 143.479,-110.76 1.174,-4.71 4.708,-7.071 9.403,-7.071 2.414,0.097 4.694,1.141 6.345,2.906 1.651,1.766 2.541,4.111 2.477,6.527 0,27.1 -48.213,114.296 -141.118,121.368 -3.595,0.267 -6.964,1.852 -9.462,4.453 -2.497,2.6 -3.946,6.031 -4.069,9.635 z"
     fill="#4f43dd"
     id="path1"
     style="filter:url(#filter307)"
     transform="scale(0.04584212)" />
  <path
     d="m 208.62,110.178 c 12.681,-0.095 25.128,3.411 35.897,10.11 1.088,-5.958 1.689,-11.996 1.795,-18.052 0,-27.97 -21.317,-53.025 -47.274,-53.025 -20.185,0 -32.805,16.726 -32.805,37.389 -0.096,11.163 3.824,21.988 11.046,30.498 9.783,-4.667 20.503,-7.034 31.341,-6.92 z"
     fill="#ffffff"
     id="path2"
     style="filter:url(#filter308)"
     transform="scale(0.04584212)" />
  <path
     d="m 269.439,211.505 c 3.603,-12.32 5.191,-20.87 5.191,-26.422 -0.11,-2.398 -1.137,-4.662 -2.869,-6.323 -1.733,-1.661 -4.037,-2.592 -6.436,-2.6 -2.236,0.042 -4.393,0.83 -6.129,2.239 -1.736,1.409 -2.952,3.358 -3.453,5.537 -0.981,4.047 -3.079,15.014 -5.15,21.976 0.856,-2.606 1.638,-5.254 2.347,-7.942 1.174,-4.724 4.708,-7.072 9.402,-7.072 2.414,0.093 4.693,1.135 6.345,2.898 1.651,1.763 2.541,4.106 2.478,6.522 -0.111,3.797 -0.719,7.563 -1.809,11.201 z"
     fill="#352d8e"
     id="path3"
     style="filter:url(#filter309)"
     transform="scale(0.04584212)" />
  <path
     d="m 319.418,198.632 c -0.113,-2.395 -1.14,-4.655 -2.868,-6.315 -1.729,-1.659 -4.028,-2.593 -6.424,-2.608 -2.233,0.045 -4.387,0.834 -6.12,2.243 -1.734,1.408 -2.947,3.356 -3.448,5.533 -0.994,4.144 -3.134,15.276 -5.233,22.224 h 0.097 c 1.022,-3.094 1.974,-6.229 2.761,-9.42 1.174,-4.724 4.708,-7.072 9.416,-7.072 2.413,0.094 4.691,1.136 6.34,2.899 1.649,1.764 2.536,4.107 2.469,6.521 -0.067,2.932 -0.47,5.848 -1.201,8.688 2.927,-10.276 4.211,-17.707 4.211,-22.693 z"
     fill="#352d8e"
     id="path4"
     style="filter:url(#filter310)"
     transform="scale(0.04584212)" />
  <path
     d="m 208.619,110.178 c 6.302,-0.012 12.577,0.829 18.653,2.5 3.19,-4.352 4.784,-9.67 4.514,-15.06 -0.27,-5.39 -2.388,-10.523 -5.997,-14.534 -3.609,-4.011 -8.489,-6.656 -13.819,-7.49 -5.33,-0.833 -10.785,0.195 -15.446,2.913 l 9.665,15.912 -18.1,-7.832 c -2.452,3.958 -3.682,8.552 -3.534,13.206 0.147,4.653 1.665,9.16 4.362,12.954 6.423,-1.731 13.05,-2.595 19.702,-2.569 z"
     fill="#030615"
     id="path5"
     style="filter:url(#filter311)"
     transform="scale(0.04584212)" />
  <path
     d="m 69.172,212.583 c 7.625,0 13.807,-6.184 13.807,-13.812 0,-7.628 -6.182,-13.812 -13.807,-13.812 -7.625,0 -13.807,6.184 -13.807,13.812 0,7.628 6.182,13.812 13.807,13.812 z"
     fill="#352d8e"
     id="path6"
     style="filter:url(#filter312)"
     transform="scale(0.04584212)" />
  <path
     d="m 69.172,157.335 c 7.625,0 13.807,-6.184 13.807,-13.812 0,-7.628 -6.182,-13.812 -13.807,-13.812 -7.625,0 -13.807,6.184 -13.807,13.812 0,7.628 6.182,13.812 13.807,13.812 z"
     fill="#352d8e"
     id="path7"
     style="filter:url(#filter313)"
     transform="scale(0.04584212)" />
  <path
     d="m 41.558,184.958 c 7.625,0 13.806,-6.184 13.806,-13.812 0,-7.628 -6.181,-13.812 -13.806,-13.812 -7.626,0 -13.807,6.184 -13.807,13.812 0,7.628 6.181,13.812 13.807,13.812 z"
     fill="#352d8e"
     id="path8"
     style="filter:url(#filter314)"
     transform="scale(0.04584212)" />
  <path
     d="m 103.688,263.91 h 2.762 c 46.459,0 89.385,-32.983 101.148,-78.356 1.173,-4.71 4.694,-7.072 9.402,-7.072 2.415,0.097 4.694,1.142 6.345,2.907 1.651,1.766 2.541,4.11 2.478,6.527 -0.211,4.821 -1.301,9.563 -3.217,13.992 0.333,-0.515 0.624,-1.055 0.87,-1.616 3.493,-7.988 5.298,-16.613 5.301,-25.332 0,-13.55 -9.416,-22.389 -22.933,-22.389 -23.568,0 -28.29,20.58 -38.23,42.583 -10.314,22.845 -29.257,47.555 -77.028,47.555 -49.635,0 -100.6373,-34.765 -88.197,-105.456 0.151,-0.884 0.276,-1.671 0.372,-2.403 C 0.939,143.982 0.014,153.272 0,162.584 0.138,219.491 44.582,262.585 103.688,263.91 Z"
     fill="#352d8e"
     id="path9"
     style="filter:url(#filter315)"
     transform="scale(0.04584212)" />
</svg>
