<?xml version="1.0" encoding="UTF-8" standalone="no"?>
<svg
   width="24"
   height="24"
   fill="none"
   viewBox="0 0 24 24"
   version="1.1"
   id="svg1"
   sodipodi:docname="pipeline-brand-24.svg"
   inkscape:version="1.3 (0e150ed, 2023-07-21)"
   xmlns:inkscape="http://www.inkscape.org/namespaces/inkscape"
   xmlns:sodipodi="http://sodipodi.sourceforge.net/DTD/sodipodi-0.dtd"
   xmlns="http://www.w3.org/2000/svg"
   xmlns:svg="http://www.w3.org/2000/svg">
  <defs
     id="defs1" />
  <sodipodi:namedview
     id="namedview1"
     pagecolor="#505050"
     bordercolor="#eeeeee"
     borderopacity="1"
     inkscape:showpageshadow="0"
     inkscape:pageopacity="0"
     inkscape:pagecheckerboard="0"
     inkscape:deskcolor="#505050"
     inkscape:zoom="9.8333333"
     inkscape:cx="12"
     inkscape:cy="11.949153"
     inkscape:window-width="1512"
     inkscape:window-height="874"
     inkscape:window-x="0"
     inkscape:window-y="32"
     inkscape:window-maximized="1"
     inkscape:current-layer="svg1" />
  <path
     fill="currentColor"
     fill-rule="evenodd"
     d="M4.75 4.5A2.25 2.25 0 002.5 6.75v1A2.25 2.25 0 004.75 10h1a2.25 2.25 0 002.236-2H9.82c.967 0 1.75.784 1.75 1.75v4.5a3.25 3.25 0 003.25 3.25h1.195a2.25 2.25 0 002.236 2h1a2.25 2.25 0 002.25-2.25v-1A2.25 2.25 0 0019.25 14h-1a2.25 2.25 0 00-2.236 2h-1.195a1.75 1.75 0 01-1.75-1.75v-4.5A3.25 3.25 0 009.82 6.5H7.986a2.25 2.25 0 00-2.236-2h-1zM4 6.75A.75.75 0 014.75 6h1a.75.75 0 01.75.75v1a.75.75 0 01-.75.75h-1A.75.75 0 014 7.75v-1zm14.25 8.75a.75.75 0 00-.75.75v1c0 .414.336.75.75.75h1a.75.75 0 00.75-.75v-1a.75.75 0 00-.75-.75h-1z"
     clip-rule="evenodd"
     id="path1"
     style="fill:#5a8f7b;fill-opacity:1" />
</svg>
