<?xml version="1.0" encoding="UTF-8" standalone="no"?>
<svg
   width="24"
   height="24"
   fill="none"
   viewBox="0 0 24 24"
   version="1.1"
   id="svg2"
   sodipodi:docname="file-ipynb-24.svg"
   inkscape:version="1.3 (0e150ed, 2023-07-21)"
   xml:space="preserve"
   xmlns:inkscape="http://www.inkscape.org/namespaces/inkscape"
   xmlns:sodipodi="http://sodipodi.sourceforge.net/DTD/sodipodi-0.dtd"
   xmlns="http://www.w3.org/2000/svg"
   xmlns:svg="http://www.w3.org/2000/svg"><defs
     id="defs2" /><sodipodi:namedview
     id="namedview2"
     pagecolor="#505050"
     bordercolor="#eeeeee"
     borderopacity="1"
     inkscape:showpageshadow="0"
     inkscape:pageopacity="0"
     inkscape:pagecheckerboard="0"
     inkscape:deskcolor="#505050"
     inkscape:zoom="11.400501"
     inkscape:cx="11.139861"
     inkscape:cy="13.508178"
     inkscape:window-width="1512"
     inkscape:window-height="853"
     inkscape:window-x="0"
     inkscape:window-y="639"
     inkscape:window-maximized="1"
     inkscape:current-layer="svg2" /><g
     fill="currentColor"
     id="g2"><path
       fill-rule="evenodd"
       d="M5.75 1A2.75 2.75 0 003 3.75v16.5A2.75 2.75 0 005.75 23h12.5A2.75 2.75 0 0021 20.25V8.664c0-.464-.184-.909-.513-1.237l-5.914-5.914A1.75 1.75 0 0013.336 1H5.75zM4.5 3.75c0-.69.56-1.25 1.25-1.25H13v5.75c0 .414.336.75.75.75h5.75v11.25c0 .69-.56 1.25-1.25 1.25H5.75c-.69 0-1.25-.56-1.25-1.25V3.75zM18.44 7.5L14.5 3.56V7.5h3.94z"
       clip-rule="evenodd"
       id="path2" /></g><text
     xml:space="preserve"
     style="font-size:48px;line-height:0;font-family:'Heiti SC';-inkscape-font-specification:'Heiti SC, Normal';fill:#f9f9f9;stroke:#7d6ec2;stroke-width:0"
     x="18.610168"
     y="19.525423"
     id="text2"><tspan
       sodipodi:role="line"
       id="tspan2" /></text><g
     id="g1"
     transform="matrix(0.39854636,0,0,0.39854636,5.4706003,9.0850278)"><path
       d="M 26.233,3.588 A 1.69,1.69 0 1 1 24.473,2 a 1.67,1.67 0 0 1 1.76,1.585 z"
       style="fill:#767677"
       id="path1" /><path
       d="m 16.375,23.111 c -4.487,0 -8.43,-1.61 -10.469,-3.988 a 11.162,11.162 0 0 0 20.938,0 C 24.81,21.5 20.882,23.111 16.375,23.111 Z"
       style="fill:#f37726"
       id="path2-5" /><path
       d="m 16.375,7.648 c 4.487,0 8.43,1.61 10.469,3.988 a 11.162,11.162 0 0 0 -20.938,0 C 7.945,9.253 11.869,7.648 16.375,7.648 Z"
       style="fill:#f37726"
       id="path3" /><path
       d="m 10.2,27.739 a 2.109,2.109 0 1 1 -0.2,-0.8 2.129,2.129 0 0 1 0.2,0.8 z"
       style="fill:#9e9e9e"
       id="path4" /><path
       d="M 6.416,7.106 A 1.226,1.226 0 1 1 7.608,5.83 1.241,1.241 0 0 1 6.416,7.106 Z"
       style="fill:#616262"
       id="path5" /></g></svg>
